<?xml version="1.0" encoding="utf-8"?>
<svg version="1.1" id="Ebene_1" xmlns="http://www.w3.org/2000/svg" xmlns:xlink="http://www.w3.org/1999/xlink" x="0px" y="0px"
	 viewBox="0 0 50 50" style="enable-background:new 0 0 50 50;" xml:space="preserve">
<style type="text/css">
	.st0{fill:#E0E0E0;}
</style>
<g>
	<path class="st0" d="M30.84,38.19l-4.65,4.65c-0.66,0.66-1.72,0.66-2.38,0l-4.65-4.65c-0.75-0.75-0.62-2.01,0.27-2.59
		c1.6-1.06,3.52-1.68,5.58-1.68s3.98,0.62,5.58,1.68C31.47,36.19,31.6,37.44,30.84,38.19z"/>
	<path class="st0" d="M34.27,22.11c-2.94-1.24-6.05-1.87-9.27-1.87s-6.33,0.63-9.27,1.87c-1.7,0.72-3.3,1.63-4.78,2.71
		c-1.57,1.15-1.73,3.45-0.35,4.83l0,0c1.11,1.11,2.87,1.26,4.13,0.33c1.08-0.79,2.24-1.45,3.48-1.97c2.14-0.91,4.42-1.37,6.77-1.37
		s4.63,0.46,6.77,1.37c1.24,0.52,2.41,1.19,3.48,1.97c1.27,0.93,3.02,0.78,4.13-0.33l0,0c1.38-1.38,1.22-3.67-0.35-4.83
		C37.57,23.73,35.97,22.83,34.27,22.11z"/>
	<path class="st0" d="M39.55,9.6C34.94,7.65,30.04,6.66,25,6.66S15.06,7.65,10.45,9.6c-3.38,1.43-6.5,3.33-9.3,5.66
		c-1.44,1.2-1.54,3.39-0.21,4.72l0,0c1.17,1.17,3.04,1.25,4.32,0.19c2.32-1.92,4.9-3.49,7.69-4.67c3.82-1.61,7.87-2.43,12.06-2.43
		s8.24,0.82,12.06,2.43c2.79,1.18,5.37,2.75,7.69,4.67c1.28,1.06,3.14,0.98,4.32-0.19l0,0c1.33-1.33,1.24-3.52-0.21-4.72
		C46.05,12.93,42.93,11.03,39.55,9.6z"/>
</g>
</svg>
